{"asset":{"version":"2.0","generator":"babylon.js glTF exporter for 3ds max 2017 v1.3.33"},"scene":0,"scenes":[{"nodes":[0,1],"extensions":{}}],"nodes":[{"mesh":0,"translation":[0.0,0.0,0.0],"rotation":[0.0,0.0,0.0,1.0],"scale":[1.0,1.0,1.0],"name":"Haruko_body"},{"translation":[0.0,0.0,0.0],"rotation":[0.0,0.0,0.0,1.0],"scale":[1.0,1.0,1.0],"name":"Default light"}],"meshes":[{"primitives":[{"attributes":{"POSITION":1,"NORMAL":2,"TEXCOORD_0":3},"indices":0,"mode":4,"material":0}],"name":"Haruko_body"}],"accessors":[{"bufferView":0,"componentType":5123,"count":13806,"type":"SCALAR","name":"accessorIndices"},{"bufferView":1,"componentType":5126,"count":13806,"max":[14.4675,49.0532,10.1374],"min":[-14.4675,-0.0335,-16.2712],"type":"VEC3","name":"accessorPositions"},{"bufferView":1,"byteOffset":165672,"componentType":5126,"count":13806,"type":"VEC3","name":"accessorNormals"},{"bufferView":2,"componentType":5126,"count":13806,"type":"VEC2","name":"accessorUVs"}],"bufferViews":[{"buffer":0,"byteLength":27612,"name":"bufferViewScalar"},{"buffer":0,"byteOffset":27612,"byteLength":331344,"byteStride":12,"name":"bufferViewFloatVec3"},{"buffer":0,"byteOffset":358956,"byteLength":110448,"byteStride":8,"name":"bufferViewFloatVec2"}],"buffers":[{"uri":"haruko_gltf.bin","byteLength":469404}],"materials":[{"pbrMetallicRoughness":{"baseColorFactor":[1.0,1.0,1.0,1.0],"baseColorTexture":{"index":0,"texCoord":0},"metallicFactor":0.0,"roughnessFactor":0.9},"occlusionTexture":{"index":0,"texCoord":0},"emissiveFactor":[0.0,0.0,0.0],"alphaMode":"BLEND","name":"01___Default"}],"textures":[{"sampler":0,"source":0,"name":"Haruko_00.png"}],"images":[{"uri":"Haruko_00.png"}],"samplers":[{"magFilter":9729,"minFilter":9987,"wrapS":10497,"wrapT":10497}]}
